<svg xmlns="http://www.w3.org/2000/svg" viewBox="0 0 512 512">
  <defs>
    <linearGradient id="bg" x1="0" y1="0" x2="1" y2="1">
      <stop offset="0" stop-color="#6750A4"/>
      <stop offset="1" stop-color="#03A9F4"/>
    </linearGradient>
    <filter id="shadow" x="-20%" y="-20%" width="140%" height="140%">
      <feDropShadow dx="0" dy="14" stdDeviation="14" flood-opacity=".22"/>
    </filter>
  </defs>
  <rect width="512" height="512" rx="112" fill="url(#bg)"/>
  <g fill="#fff" filter="url(#shadow)">
    <rect x="112" y="122" width="242" height="286" rx="30" opacity=".48" transform="rotate(-8 233 265)"/>
    <rect x="158" y="108" width="242" height="296" rx="32" opacity=".96"/>
  </g>
  <path d="M203 184h152M203 236h152M203 288h104" fill="none" stroke="#6750A4" stroke-width="22" stroke-linecap="round"/>
  <g fill="#FFF59D">
    <path d="M383 61l13 38 38 13-38 13-13 38-13-38-38-13 38-13z"/>
    <path d="M100 338l10 29 29 10-29 10-10 29-10-29-29-10 29-10z"/>
  </g>
</svg>
